<svg id="основа" xmlns="http://www.w3.org/2000/svg" xmlns:xlink="http://www.w3.org/1999/xlink" viewBox="0 0 128 128"><defs><style>.cls-1{fill:none;}.cls-2{fill:#31db92;}.cls-3{clip-path:url(#clip-path);}.cls-4{fill:#128e59;}.cls-5{fill:#138f5a;}.cls-6{fill:#13905a;}.cls-7{fill:#14915b;}.cls-8{fill:#14925c;}.cls-9{fill:#15935d;}.cls-10{fill:#15945d;}.cls-11{fill:#16955e;}.cls-12{fill:#16965f;}.cls-13{fill:#17975f;}.cls-14{fill:#189860;}.cls-15{fill:#189961;}.cls-16{fill:#199a62;}.cls-17{fill:#199b62;}.cls-18{fill:#1a9c63;}.cls-19{fill:#1a9d64;}.cls-20{fill:#1b9e65;}.cls-21{fill:#1b9f65;}.cls-22{fill:#1ca066;}.cls-23{fill:#1ca167;}.cls-24{fill:#1da267;}.cls-25{fill:#1ea368;}.cls-26{fill:#1ea469;}.cls-27{fill:#1fa56a;}.cls-28{fill:#1fa66a;}.cls-29{fill:#20a76b;}.cls-30{fill:#20a86c;}.cls-31{fill:#21a96c;}.cls-32{fill:#21aa6d;}.cls-33{fill:#22ab6e;}.cls-34{fill:#23ac6f;}.cls-35{fill:#23ad6f;}.cls-36{fill:#24ae70;}.cls-37{fill:#24af71;}.cls-38{fill:#25b071;}.cls-39{fill:#25b172;}.cls-40{fill:#26b273;}.cls-41{fill:#26b374;}.cls-42{fill:#27b474;}.cls-43{fill:#27b575;}.cls-44{fill:#28b676;}.cls-45{fill:#29b776;}.cls-46{fill:#29b877;}.cls-47{fill:#2ab978;}.cls-48{fill:#2aba79;}.cls-49{fill:#2bbc79;}.cls-50{fill:#2bbd7a;}.cls-51{fill:#2cbe7b;}.cls-52{fill:#2cbf7c;}.cls-53{fill:#2dc07c;}.cls-54{fill:#2ec17d;}.cls-55{fill:#2ec27e;}.cls-56{fill:#2fc37e;}.cls-57{fill:#2fc47f;}.cls-58{fill:#30c580;}.cls-59{fill:#30c681;}.cls-60{fill:#31c781;}.cls-61{fill:#31c882;}.cls-62{fill:#32c983;}.cls-63{fill:#32ca83;}.cls-64{fill:#33cb84;}.cls-65{fill:#34cc85;}.cls-66{fill:#34cd86;}.cls-67{fill:#35ce86;}.cls-68{fill:#35cf87;}.cls-69{fill:#36d088;}.cls-70{fill:#36d188;}.cls-71{fill:#37d289;}.cls-72{fill:#37d38a;}.cls-73{fill:#38d48b;}.cls-74{fill:#39d58b;}.cls-75{fill:#39d68c;}.cls-76{fill:#3ad78d;}.cls-77{fill:#3ad88d;}.cls-78{fill:#3bd98e;}.cls-79{fill:#3bda8f;}.cls-80{fill:#3cdb90;}.cls-81{fill:#3cdc90;}.cls-82{fill:#3ddd91;}.cls-83{fill:#3dde92;}.cls-84{fill:#3edf93;}.cls-85{fill:#3fe093;}.cls-86{fill:#3fe194;}.cls-87{fill:#40e295;}.cls-88{fill:#40e395;}.cls-89{fill:#41e496;}.cls-90{fill:#41e597;}.cls-91{fill:#42e698;}.cls-92{fill:#42e798;}.cls-93{fill:#43e899;}.cls-94{fill:#e5d53a;}.cls-95{fill:#efc411;}</style><clipPath id="clip-path"><path class="cls-1" d="M124,84.73a63.13,63.13,0,0,1-41.06,39.52L41.3,82.6,85.06,42.52Z"/></clipPath></defs><title>Weather icons</title><path class="cls-2" d="M127.5,64a63,63,0,1,1-63-63A62.81,62.81,0,0,1,127.5,64Z"/><g class="cls-3"><polygon class="cls-4" points="85.06 42 41 60.2 41 42 85.06 42"/><polygon class="cls-4" points="87.29 42 41 61.1 41 60.2 85.06 42 87.29 42"/><polygon class="cls-5" points="89.52 42 41 62 41 61.1 87.29 42 89.52 42"/><polygon class="cls-6" points="91.75 42 41 62.9 41 62 89.52 42 91.75 42"/><polygon class="cls-7" points="93.98 42 41 63.8 41 62.9 91.75 42 93.98 42"/><polygon class="cls-8" points="96.21 42 41 64.7 41 63.8 93.98 42 96.21 42"/><polygon class="cls-9" points="98.44 42 41 65.61 41 64.7 96.21 42 98.44 42"/><polygon class="cls-10" points="100.68 42 41 66.51 41 65.61 98.44 42 100.68 42"/><polygon class="cls-11" points="102.91 42 41 67.41 41 66.51 100.68 42 102.91 42"/><polygon class="cls-12" points="105.14 42 41 68.31 41 67.41 102.91 42 105.14 42"/><polygon class="cls-13" points="107.37 42 41 69.21 41 68.31 105.14 42 107.37 42"/><polygon class="cls-14" points="109.08 42 109 42.44 41 70.11 41 69.21 107.37 42 109.08 42"/><polygon class="cls-15" points="109 42.7 109.24 43.47 41 71.02 41 70.11 109 42.7"/><polygon class="cls-16" points="109.31 43.47 109.55 44.25 41 71.92 41 71.02 109.31 43.47"/><polygon class="cls-17" points="109.63 44.25 109.87 45.02 41 72.82 41 71.92 109.63 44.25"/><polygon class="cls-18" points="109.94 45.02 110.18 45.8 41 73.72 41 72.82 109.94 45.02"/><polygon class="cls-19" points="110.25 45.8 110.49 46.57 41 74.62 41 73.72 110.25 45.8"/><polygon class="cls-20" points="110.57 46.57 110.81 47.35 41 75.52 41 74.62 110.57 46.57"/><polygon class="cls-21" points="110.88 47.35 111.12 48.12 41 76.42 41 75.52 110.88 47.35"/><polygon class="cls-22" points="111.19 48.12 111.43 48.9 41 77.33 41 76.42 111.19 48.12"/><polygon class="cls-23" points="111.51 48.9 111.75 49.67 41 78.23 41 77.33 111.51 48.9"/><polygon class="cls-24" points="111.82 49.67 112.06 50.45 41 79.13 41 78.23 111.82 49.67"/><polygon class="cls-25" points="112.13 50.45 112.37 51.22 41 80.03 41 79.13 112.13 50.45"/><polygon class="cls-26" points="112.45 51.22 112.69 52 41 80.93 41 80.03 112.45 51.22"/><polygon class="cls-27" points="112.76 52 113 52.77 41 81.83 41 80.93 112.76 52"/><polygon class="cls-28" points="113.07 52.77 113.31 53.55 41 82.73 41 81.83 113.07 52.77"/><polygon class="cls-29" points="113.39 53.55 113.63 54.32 41 83.64 41 82.73 113.39 53.55"/><polygon class="cls-30" points="113.7 54.32 113.94 55.1 41 84.54 41 83.64 113.7 54.32"/><polygon class="cls-31" points="114.01 55.1 114.25 55.87 41 85.44 41 84.54 114.01 55.1"/><polygon class="cls-32" points="114.33 55.87 114.56 56.65 41 86.34 41 85.44 114.33 55.87"/><polygon class="cls-33" points="114.64 56.65 114.88 57.42 41 87.24 41 86.34 114.64 56.65"/><polygon class="cls-34" points="114.95 57.42 115.34 58.2 41.21 88.1 41 87.86 41 87.24 114.95 57.42"/><rect class="cls-35" x="38.65" y="73.12" width="79.83" height="0.84" transform="translate(-21.83 34.78) rotate(-22)"/><rect class="cls-36" x="38.96" y="73.9" width="79.83" height="0.84" transform="translate(-22.1 34.96) rotate(-22)"/><rect class="cls-37" x="39.27" y="74.67" width="79.83" height="0.84" transform="translate(-22.36 35.13) rotate(-22)"/><rect class="cls-38" x="39.59" y="75.45" width="79.83" height="0.84" transform="translate(-22.63 35.31) rotate(-22)"/><rect class="cls-39" x="39.9" y="76.22" width="79.83" height="0.84" transform="translate(-22.9 35.48) rotate(-22)"/><rect class="cls-40" x="40.21" y="77" width="79.83" height="0.84" transform="translate(-23.17 35.65) rotate(-22)"/><rect class="cls-41" x="40.52" y="77.77" width="79.83" height="0.84" transform="translate(-23.43 35.83) rotate(-22)"/><rect class="cls-42" x="40.84" y="78.55" width="79.83" height="0.84" transform="translate(-23.7 36) rotate(-22)"/><rect class="cls-43" x="41.15" y="79.32" width="79.83" height="0.84" transform="translate(-23.97 36.17) rotate(-22)"/><rect class="cls-44" x="41.46" y="80.1" width="79.83" height="0.84" transform="translate(-24.24 36.35) rotate(-22)"/><rect class="cls-45" x="41.78" y="80.87" width="79.83" height="0.84" transform="translate(-24.5 36.52) rotate(-22)"/><rect class="cls-46" x="42.09" y="81.65" width="79.83" height="0.84" transform="translate(-24.77 36.7) rotate(-22)"/><rect class="cls-47" x="42.4" y="82.42" width="79.83" height="0.84" transform="translate(-25.04 36.87) rotate(-22)"/><rect class="cls-48" x="42.72" y="83.2" width="79.83" height="0.84" transform="translate(-25.31 37.04) rotate(-22)"/><rect class="cls-49" x="43.03" y="83.97" width="79.83" height="0.84" transform="translate(-25.57 37.22) rotate(-22)"/><rect class="cls-50" x="43.34" y="84.75" width="79.83" height="0.84" transform="translate(-25.84 37.39) rotate(-22)"/><rect class="cls-51" x="43.66" y="85.52" width="79.83" height="0.84" transform="translate(-26.11 37.56) rotate(-22)"/><rect class="cls-52" x="43.97" y="86.3" width="79.83" height="0.84" transform="translate(-26.38 37.74) rotate(-22)"/><rect class="cls-53" x="44.28" y="87.07" width="79.83" height="0.84" transform="translate(-26.64 37.91) rotate(-22)"/><rect class="cls-54" x="44.6" y="87.85" width="79.83" height="0.84" transform="translate(-26.91 38.09) rotate(-22)"/><rect class="cls-55" x="44.91" y="88.62" width="79.83" height="0.84" transform="translate(-27.18 38.26) rotate(-22)"/><rect class="cls-56" x="45.22" y="89.4" width="79.83" height="0.84" transform="translate(-27.45 38.43) rotate(-22)"/><rect class="cls-57" x="45.54" y="90.17" width="79.83" height="0.84" transform="translate(-27.71 38.61) rotate(-22)"/><rect class="cls-58" x="45.85" y="90.95" width="79.83" height="0.84" transform="translate(-27.98 38.78) rotate(-22)"/><rect class="cls-59" x="46.16" y="91.72" width="79.83" height="0.84" transform="translate(-28.25 38.95) rotate(-22)"/><rect class="cls-60" x="46.47" y="92.5" width="79.83" height="0.84" transform="translate(-28.52 39.13) rotate(-22)"/><rect class="cls-61" x="46.79" y="93.27" width="79.83" height="0.84" transform="translate(-28.78 39.3) rotate(-22)"/><polygon class="cls-62" points="124.36 79.13 125 79.47 125 79.97 50.66 109.8 50.35 109.03 124.36 79.13"/><polygon class="cls-63" points="125 80.87 50.97 110.58 50.91 109.8 125 79.97 125 80.87"/><polygon class="cls-64" points="125 81.77 51.29 111.35 51.22 110.58 125 80.87 125 81.77"/><polygon class="cls-65" points="125 82.67 51.6 112.13 51.53 111.35 125 81.77 125 82.67"/><polygon class="cls-66" points="125 83.58 51.91 112.9 51.85 112.13 125 82.67 125 83.58"/><polygon class="cls-67" points="125 84.48 52.23 113.68 52.16 112.9 125 83.58 125 84.48"/><polygon class="cls-68" points="125 85.38 52.54 114.45 52.47 113.68 125 84.48 125 85.38"/><polygon class="cls-69" points="125 86.28 52.85 115.23 52.79 114.45 125 85.38 125 86.28"/><polygon class="cls-70" points="125 87.18 53.16 116 53.1 115.23 125 86.28 125 87.18"/><polygon class="cls-71" points="125 88.08 53.48 116.78 53.41 116 125 87.18 125 88.08"/><polygon class="cls-72" points="125 88.98 53.79 117.56 53.73 116.78 125 88.08 125 88.98"/><polygon class="cls-73" points="125 89.89 54.1 118.33 54.04 117.56 125 88.98 125 89.89"/><polygon class="cls-74" points="125 90.79 54.42 119.11 54.35 118.33 125 89.89 125 90.79"/><polygon class="cls-75" points="125 91.69 54.73 119.88 54.66 119.11 125 90.79 125 91.69"/><polygon class="cls-76" points="125 92.59 55.04 120.66 54.98 119.88 125 91.69 125 92.59"/><polygon class="cls-77" points="125 93.49 55.36 121.43 55.29 120.66 125 92.59 125 93.49"/><polygon class="cls-78" points="125 94.39 55.67 122.2 55.6 121.43 125 93.49 125 94.39"/><polygon class="cls-79" points="125 95.3 55.98 122.98 55.92 122.2 125 94.39 125 95.3"/><polygon class="cls-80" points="125 96.2 56.3 123.75 56.23 122.98 125 95.3 125 96.2"/><polygon class="cls-81" points="125 97.1 56.81 125 56 125 56.3 124.13 125 96.2 125 97.1"/><polygon class="cls-82" points="125 98 59.04 125 56.81 125 125 97.1 125 98"/><polygon class="cls-83" points="125 98.9 61.27 125 59.04 125 125 98 125 98.9"/><polygon class="cls-84" points="125 99.8 63.5 125 61.27 125 125 98.9 125 99.8"/><polygon class="cls-85" points="125 100.7 65.73 125 63.5 125 125 99.8 125 100.7"/><polygon class="cls-86" points="125 101.61 67.96 125 65.73 125 125 100.7 125 101.61"/><polygon class="cls-87" points="125 102.51 70.19 125 67.96 125 125 101.61 125 102.51"/><polygon class="cls-88" points="125 103.41 72.43 125 70.19 125 125 102.51 125 103.41"/><polygon class="cls-89" points="125 104.31 74.66 125 72.43 125 125 103.41 125 104.31"/><polygon class="cls-90" points="125 105.21 76.89 125 74.66 125 125 104.31 125 105.21"/><polygon class="cls-91" points="125 106.11 79.12 125 76.89 125 125 105.21 125 106.11"/><polygon class="cls-92" points="125 107.02 81.35 125 79.12 125 125 106.11 125 107.02"/><polygon class="cls-93" points="125 107.92 83.58 125 81.35 125 125 107.02 125 107.92"/><polygon class="cls-93" points="83.58 125 125 107.92 125 125 83.58 125"/></g><circle class="cls-94" cx="64.5" cy="64" r="29.74"/><path class="cls-95" d="M89.73,48.26c0,0.4,0,.79,0,1.19,0,19.69-18.54,35.66-41.41,35.66a48.41,48.41,0,0,1-5.07-.28A29.74,29.74,0,0,0,89.73,48.26Z"/><path class="cls-94" d="M64.5,32A1.5,1.5,0,0,1,63,30.53V19.7a1.5,1.5,0,0,1,3,0V30.53A1.5,1.5,0,0,1,64.5,32Z"/><path class="cls-94" d="M64.5,109.77A1.5,1.5,0,0,1,63,108.3V97.47a1.5,1.5,0,0,1,3,0V108.3A1.5,1.5,0,0,1,64.5,109.77Z"/><path class="cls-94" d="M64.5,32A1.5,1.5,0,0,1,63,30.53V19.7a1.5,1.5,0,0,1,3,0V30.53A1.5,1.5,0,0,1,64.5,32Z"/><path class="cls-94" d="M64.5,109.77A1.5,1.5,0,0,1,63,108.3V97.47a1.5,1.5,0,0,1,3,0V108.3A1.5,1.5,0,0,1,64.5,109.77Z"/><path class="cls-94" d="M109.29,66H98.46a1.5,1.5,0,0,1,0-3h10.83A1.5,1.5,0,0,1,109.29,66Z"/><path class="cls-94" d="M30.54,66H19.71a1.5,1.5,0,0,1,0-3H30.54A1.5,1.5,0,0,1,30.54,66Z"/><path class="cls-94" d="M109.29,66H98.46a1.5,1.5,0,0,1,0-3h10.83A1.5,1.5,0,0,1,109.29,66Z"/><path class="cls-94" d="M30.54,66H19.71a1.5,1.5,0,0,1,0-3H30.54A1.5,1.5,0,0,1,30.54,66Z"/><line class="cls-94" x1="40.3" y1="88.2" x2="32.62" y2="95.88"/><path class="cls-94" d="M32.62,97.16a1.28,1.28,0,0,1-.9-2.18l7.69-7.69a1.28,1.28,0,0,1,1.81,1.81l-7.69,7.69A1.27,1.27,0,0,1,32.62,97.16Z"/><line class="cls-94" x1="88.24" y1="40.26" x2="95.93" y2="32.57"/><path class="cls-94" d="M88.24,41.54a1.28,1.28,0,0,1-.9-2.18L95,31.66a1.28,1.28,0,0,1,1.81,1.81l-7.69,7.69A1.27,1.27,0,0,1,88.24,41.54Z"/><line class="cls-94" x1="40.3" y1="88.2" x2="32.62" y2="95.88"/><path class="cls-94" d="M32.62,97.16a1.28,1.28,0,0,1-.9-2.18l7.69-7.69a1.28,1.28,0,0,1,1.81,1.81l-7.69,7.69A1.27,1.27,0,0,1,32.62,97.16Z"/><line class="cls-94" x1="88.24" y1="40.26" x2="95.93" y2="32.57"/><path class="cls-94" d="M88.24,41.54a1.28,1.28,0,0,1-.9-2.18L95,31.66a1.28,1.28,0,0,1,1.81,1.81l-7.69,7.69A1.27,1.27,0,0,1,88.24,41.54Z"/><line class="cls-94" x1="40.73" y1="39.39" x2="33.18" y2="31.56"/><path class="cls-94" d="M40.73,40.66a1.27,1.27,0,0,1-.92-0.39l-7.55-7.82a1.28,1.28,0,0,1,1.84-1.78l7.55,7.82A1.28,1.28,0,0,1,40.73,40.66Z"/><line class="cls-94" x1="87.83" y1="88.15" x2="95.38" y2="95.98"/><path class="cls-94" d="M95.38,97.25a1.27,1.27,0,0,1-.92-0.39L86.91,89a1.28,1.28,0,0,1,1.84-1.78l7.55,7.82A1.28,1.28,0,0,1,95.38,97.25Z"/></svg>