<svg id="основа" xmlns="http://www.w3.org/2000/svg" xmlns:xlink="http://www.w3.org/1999/xlink" viewBox="0 0 128 128"><defs><style>.cls-1{fill:none;}.cls-2{fill:#31db92;}.cls-3{clip-path:url(#clip-path);}.cls-4{fill:#128e59;}.cls-5{fill:#138f5a;}.cls-6{fill:#13905a;}.cls-7{fill:#14915b;}.cls-8{fill:#14925c;}.cls-9{fill:#15935d;}.cls-10{fill:#15945d;}.cls-11{fill:#16955e;}.cls-12{fill:#16965f;}.cls-13{fill:#17975f;}.cls-14{fill:#189860;}.cls-15{fill:#189961;}.cls-16{fill:#199a62;}.cls-17{fill:#199b62;}.cls-18{fill:#1a9c63;}.cls-19{fill:#1a9d64;}.cls-20{fill:#1b9e65;}.cls-21{fill:#1b9f65;}.cls-22{fill:#1ca066;}.cls-23{fill:#1ca167;}.cls-24{fill:#1da267;}.cls-25{fill:#1ea368;}.cls-26{fill:#1ea469;}.cls-27{fill:#1fa56a;}.cls-28{fill:#1fa66a;}.cls-29{fill:#20a76b;}.cls-30{fill:#20a86c;}.cls-31{fill:#21a96c;}.cls-32{fill:#21aa6d;}.cls-33{fill:#22ab6e;}.cls-34{fill:#23ac6f;}.cls-35{fill:#23ad6f;}.cls-36{fill:#24ae70;}.cls-37{fill:#24af71;}.cls-38{fill:#25b071;}.cls-39{fill:#25b172;}.cls-40{fill:#26b273;}.cls-41{fill:#26b374;}.cls-42{fill:#27b474;}.cls-43{fill:#27b575;}.cls-44{fill:#28b676;}.cls-45{fill:#29b776;}.cls-46{fill:#29b877;}.cls-47{fill:#2ab978;}.cls-48{fill:#2aba79;}.cls-49{fill:#2bbc79;}.cls-50{fill:#2bbd7a;}.cls-51{fill:#2cbe7b;}.cls-52{fill:#2cbf7c;}.cls-53{fill:#2dc07c;}.cls-54{fill:#2ec17d;}.cls-55{fill:#2ec27e;}.cls-56{fill:#2fc37e;}.cls-57{fill:#2fc47f;}.cls-58{fill:#30c580;}.cls-59{fill:#30c681;}.cls-60{fill:#31c781;}.cls-61{fill:#31c882;}.cls-62{fill:#32c983;}.cls-63{fill:#32ca83;}.cls-64{fill:#33cb84;}.cls-65{fill:#34cc85;}.cls-66{fill:#34cd86;}.cls-67{fill:#35ce86;}.cls-68{fill:#35cf87;}.cls-69{fill:#36d088;}.cls-70{fill:#36d188;}.cls-71{fill:#37d289;}.cls-72{fill:#37d38a;}.cls-73{fill:#38d48b;}.cls-74{fill:#39d58b;}.cls-75{fill:#39d68c;}.cls-76{fill:#3ad78d;}.cls-77{fill:#3ad88d;}.cls-78{fill:#3bd98e;}.cls-79{fill:#3bda8f;}.cls-80{fill:#3cdb90;}.cls-81{fill:#3cdc90;}.cls-82{fill:#3ddd91;}.cls-83{fill:#3dde92;}.cls-84{fill:#3edf93;}.cls-85{fill:#3fe093;}.cls-86{fill:#3fe194;}.cls-87{fill:#40e295;}.cls-88{fill:#40e395;}.cls-89{fill:#41e496;}.cls-90{fill:#41e597;}.cls-91{fill:#42e698;}.cls-92{fill:#42e798;}.cls-93{fill:#43e899;}.cls-94{fill:#fffffa;}.cls-95{fill:#f4f4ea;}</style><clipPath id="clip-path"><path class="cls-1" d="M126.37,75.93A62,62,0,0,1,124,84.73c-0.29.83-.59,1.64-0.91,2.44a63.13,63.13,0,0,1-40.15,37.08,62.2,62.2,0,0,1-14.47,2.62q-2,.12-4,0.13H64.05L26.24,86l89.81-23.92Z"/></clipPath></defs><title>Weather icons</title><path class="cls-2" d="M127.5,64a63.24,63.24,0,0,1-1.13,11.93A62,62,0,0,1,124,84.73c-0.29.83-.59,1.64-0.91,2.44a63.13,63.13,0,0,1-40.15,37.08,62.2,62.2,0,0,1-14.47,2.62q-2,.12-4,0.13H64.05A63,63,0,1,1,127.5,64Z"/><g class="cls-3"><polygon class="cls-4" points="85.45 62 26 85.98 26 62 85.45 62"/><polygon class="cls-4" points="87.14 62 26 86.66 26 85.98 85.45 62 87.14 62"/><polygon class="cls-5" points="88.83 62 26 87.34 26 86.66 87.14 62 88.83 62"/><polygon class="cls-6" points="90.52 62 26 88.02 26 87.34 88.83 62 90.52 62"/><polygon class="cls-7" points="92.2 62 26 88.71 26 88.02 90.52 62 92.2 62"/><polygon class="cls-8" points="93.89 62 26 89.39 26 88.71 92.2 62 93.89 62"/><polygon class="cls-9" points="95.58 62 26 90.07 26 89.39 93.89 62 95.58 62"/><polygon class="cls-10" points="97.27 62 26 90.75 26 90.07 95.58 62 97.27 62"/><polygon class="cls-11" points="98.96 62 26.16 91.39 26 91.31 26 90.75 97.27 62 98.96 62"/><polygon class="cls-12" points="100.65 62 26.52 91.98 26.28 91.38 98.96 62 100.65 62"/><polygon class="cls-13" points="102.34 62 26.76 92.57 26.52 91.97 100.65 62 102.34 62"/><polygon class="cls-14" points="104.03 62 26.99 93.15 26.76 92.55 102.34 62 104.03 62"/><polygon class="cls-15" points="105.72 62 27.23 93.74 26.99 93.14 104.03 62 105.72 62"/><polygon class="cls-16" points="107.41 62 27.47 94.33 27.23 93.73 105.72 62 107.41 62"/><polygon class="cls-17" points="109.1 62 27.7 94.91 27.47 94.31 107.41 62 109.1 62"/><polygon class="cls-18" points="110.79 62 27.94 95.5 27.7 94.9 109.1 62 110.79 62"/><polygon class="cls-19" points="112.48 62 28.18 96.09 27.94 95.49 110.79 62 112.48 62"/><polygon class="cls-20" points="114.17 62 28.42 96.67 28.18 96.07 112.48 62 114.17 62"/><polygon class="cls-21" points="115.86 62 28.65 97.26 28.42 96.66 114.17 62 115.86 62"/><polygon class="cls-22" points="117.55 62 28.89 97.85 28.65 97.25 115.86 62 117.55 62"/><polygon class="cls-23" points="119.24 62 29.13 98.44 28.89 97.83 117.55 62 119.24 62"/><polygon class="cls-24" points="120.93 62 29.36 99.02 29.13 98.42 119.24 62 120.93 62"/><polygon class="cls-25" points="122.62 62 29.6 99.61 29.36 99.01 120.93 62 122.62 62"/><polygon class="cls-26" points="122.92 62 123.11 62.51 29.84 100.21 29.6 99.6 122.62 62 122.92 62"/><rect class="cls-27" x="26.29" y="81.36" width="100.6" height="0.63" transform="translate(-25.02 34.64) rotate(-22)"/><rect class="cls-28" x="26.53" y="81.95" width="100.6" height="0.63" transform="translate(-25.22 34.77) rotate(-22)"/><rect class="cls-29" x="26.77" y="82.53" width="100.6" height="0.63" transform="translate(-25.42 34.9) rotate(-22)"/><rect class="cls-30" x="27.01" y="83.12" width="100.6" height="0.63" transform="translate(-25.63 35.03) rotate(-22)"/><rect class="cls-31" x="27.24" y="83.71" width="100.6" height="0.63" transform="translate(-25.83 35.17) rotate(-22)"/><rect class="cls-32" x="27.48" y="84.29" width="100.6" height="0.63" transform="translate(-26.03 35.3) rotate(-22)"/><rect class="cls-33" x="27.72" y="84.88" width="100.6" height="0.63" transform="translate(-26.23 35.43) rotate(-22)"/><rect class="cls-34" x="27.95" y="85.47" width="100.6" height="0.63" transform="translate(-26.44 35.56) rotate(-22)"/><rect class="cls-35" x="28.19" y="86.05" width="100.6" height="0.63" transform="translate(-26.64 35.69) rotate(-22)"/><rect class="cls-36" x="28.43" y="86.64" width="100.6" height="0.63" transform="translate(-26.84 35.82) rotate(-22)"/><rect class="cls-37" x="28.67" y="87.23" width="100.6" height="0.63" transform="translate(-27.04 35.96) rotate(-22)"/><rect class="cls-38" x="28.9" y="87.81" width="100.6" height="0.63" transform="translate(-27.25 36.09) rotate(-22)"/><rect class="cls-39" x="29.14" y="88.4" width="100.6" height="0.63" transform="translate(-27.45 36.22) rotate(-22)"/><polygon class="cls-40" points="126.01 70.17 126 70.6 126 70.78 32.97 108.44 32.74 107.85 126.01 70.17"/><polygon class="cls-41" points="126 71.46 33.21 109.03 32.88 108.44 126 70.78 126 71.46"/><polygon class="cls-42" points="126 72.15 33.45 109.61 33.12 109.03 126 71.46 126 72.15"/><polygon class="cls-43" points="126 72.83 33.69 110.2 33.36 109.61 126 72.15 126 72.83"/><polygon class="cls-44" points="126 73.51 33.92 110.79 33.59 110.2 126 72.83 126 73.51"/><polygon class="cls-45" points="126 74.19 34.16 111.38 33.83 110.79 126 73.51 126 74.19"/><polygon class="cls-46" points="126 74.88 34.4 111.96 34.07 111.38 126 74.19 126 74.88"/><polygon class="cls-47" points="126 75.56 34.63 112.55 34.3 111.96 126 74.88 126 75.56"/><polygon class="cls-48" points="126 76.24 34.87 113.14 34.54 112.55 126 75.56 126 76.24"/><polygon class="cls-49" points="126 76.92 35.11 113.72 34.78 113.14 126 76.24 126 76.92"/><polygon class="cls-50" points="126 77.61 35.35 114.31 35.02 113.72 126 76.92 126 77.61"/><polygon class="cls-51" points="126 78.29 35.58 114.9 35.25 114.31 126 77.61 126 78.29"/><polygon class="cls-52" points="126 78.97 35.82 115.48 35.49 114.9 126 78.29 126 78.97"/><polygon class="cls-53" points="126 79.66 36.06 116.07 35.73 115.48 126 78.97 126 79.66"/><polygon class="cls-54" points="126 80.34 36.29 116.66 35.97 116.07 126 79.66 126 80.34"/><polygon class="cls-55" points="126 81.02 36.53 117.24 36.2 116.66 126 80.34 126 81.02"/><polygon class="cls-56" points="126 81.7 36.77 117.83 36.44 117.24 126 81.02 126 81.7"/><polygon class="cls-57" points="126 82.39 37.01 118.42 36.68 117.83 126 81.7 126 82.39"/><polygon class="cls-58" points="126 83.07 37.24 119 36.91 118.42 126 82.39 126 83.07"/><polygon class="cls-59" points="126 83.75 37.48 119.59 37.15 119 126 83.07 126 83.75"/><polygon class="cls-60" points="126 84.44 37.72 120.18 37.39 119.59 126 83.75 126 84.44"/><polygon class="cls-61" points="126 85.12 37.95 120.77 37.63 120.18 126 84.44 126 85.12"/><polygon class="cls-62" points="126 85.8 38.19 121.35 37.86 120.77 126 85.12 126 85.8"/><polygon class="cls-63" points="126 86.48 38.43 121.94 38.1 121.35 126 85.8 126 86.48"/><polygon class="cls-64" points="126 87.17 38.66 122.53 38.34 121.94 126 86.48 126 87.17"/><polygon class="cls-65" points="126 87.85 38.9 123.11 38.57 122.53 126 87.17 126 87.85"/><polygon class="cls-66" points="126 88.53 39.14 123.7 38.81 123.11 126 87.85 126 88.53"/><polygon class="cls-67" points="126 89.21 39.38 124.29 39.05 123.7 126 88.53 126 89.21"/><polygon class="cls-68" points="126 89.9 39.61 124.87 39.28 124.29 126 89.21 126 89.9"/><polygon class="cls-69" points="126 90.58 39.85 125.46 39.52 124.87 126 89.9 126 90.58"/><polygon class="cls-70" points="126 91.26 40.09 126.05 39.76 125.46 126 90.58 126 91.26"/><polygon class="cls-71" points="126 91.94 40.33 126.63 40 126.05 126 91.26 126 91.94"/><polygon class="cls-72" points="126 92.63 41.29 127 40.66 127 40.33 126.63 126 91.94 126 92.63"/><polygon class="cls-73" points="126 93.31 42.98 127 41.29 127 126 92.63 126 93.31"/><polygon class="cls-74" points="126 93.99 44.67 127 42.98 127 126 93.31 126 93.99"/><polygon class="cls-75" points="126 94.67 46.36 127 44.67 127 126 93.99 126 94.67"/><polygon class="cls-76" points="126 95.36 48.05 127 46.36 127 126 94.67 126 95.36"/><polygon class="cls-77" points="126 96.04 49.74 127 48.05 127 126 95.36 126 96.04"/><polygon class="cls-78" points="126 96.72 51.43 127 49.74 127 126 96.04 126 96.72"/><polygon class="cls-79" points="126 97.41 53.12 127 51.43 127 126 96.72 126 97.41"/><polygon class="cls-80" points="126 98.09 54.81 127 53.12 127 126 97.41 126 98.09"/><polygon class="cls-81" points="126 98.77 56.5 127 54.81 127 126 98.09 126 98.77"/><polygon class="cls-82" points="126 99.45 58.19 127 56.5 127 126 98.77 126 99.45"/><polygon class="cls-83" points="126 100.14 59.88 127 58.19 127 126 99.45 126 100.14"/><polygon class="cls-84" points="126 100.82 61.57 127 59.88 127 126 100.14 126 100.82"/><polygon class="cls-85" points="126 101.5 63.26 127 61.57 127 126 100.82 126 101.5"/><polygon class="cls-86" points="126 102.19 64.95 127 63.26 127 126 101.5 126 102.19"/><polygon class="cls-87" points="126 102.87 66.64 127 64.95 127 126 102.19 126 102.87"/><polygon class="cls-88" points="126 103.55 68.33 127 66.64 127 126 102.87 126 103.55"/><polygon class="cls-89" points="126 104.23 70.02 127 68.33 127 126 103.55 126 104.23"/><polygon class="cls-90" points="126 104.92 71.71 127 70.02 127 126 104.23 126 104.92"/><polygon class="cls-91" points="126 105.6 73.4 127 71.71 127 126 104.92 126 105.6"/><polygon class="cls-92" points="126 106.28 75.09 127 73.4 127 126 105.6 126 106.28"/><polygon class="cls-93" points="126 106.96 76.78 127 75.09 127 126 106.28 126 106.96"/><polygon class="cls-93" points="76.78 127 126 106.96 126 127 76.78 127"/></g><path class="cls-94" d="M104.37,79.71l0.1,0.29H45l-0.11-.29a17.72,17.72,0,1,1,4-35,24,24,0,0,1,46-.11,8.6,8.6,0,0,1,12.25,10A12.71,12.71,0,0,1,104.37,79.71Z"/><path class="cls-95" d="M117.05,67a12.71,12.71,0,0,0-9.95-12.4,8.6,8.6,0,0,0-12.25-10A24,24,0,0,0,66.13,28.15,24,24,0,0,1,83.35,44.58a8.6,8.6,0,0,1,12.25,10,12.71,12.71,0,0,1-2.73,25.11L93,80h11.51l-0.1-.29A12.71,12.71,0,0,0,117.05,67Z"/><path class="cls-95" d="M83.47,79.17a4.59,4.59,0,0,1,0,.83H45l-0.11-.29a17.73,17.73,0,0,1-16.67-12.1,11.57,11.57,0,0,1,8.12-3.32,11.72,11.72,0,0,1,2.53.28,15.68,15.68,0,0,1,30.09-.07,5.63,5.63,0,0,1,8.24,5A5.46,5.46,0,0,1,77,71.05,8.32,8.32,0,0,1,83.47,79.17Z"/><path class="cls-94" d="M80.91,80.44a8.31,8.31,0,0,0-6.51-8.11,5.63,5.63,0,0,0-8-6.55,15.69,15.69,0,0,0-30.09.07,11.61,11.61,0,1,0-2.61,22.94L33.76,89H72.68l-0.07-.22A8.34,8.34,0,0,0,80.91,80.44Z"/></svg>