<svg id="основа" xmlns="http://www.w3.org/2000/svg" xmlns:xlink="http://www.w3.org/1999/xlink" viewBox="0 0 128 128"><defs><style>.cls-1{fill:#31db92;}.cls-2{fill:url(#Безымянный_градиент_6);}.cls-3{fill:#fffffa;}.cls-4{fill:#f4f4ea;}.cls-5{fill:#fff;}</style><linearGradient id="Безымянный_градиент_6" x1="65.12" y1="63.01" x2="88.98" y2="122.07" gradientUnits="userSpaceOnUse"><stop offset="0" stop-color="#128e59"/><stop offset="1" stop-color="#43e899"/></linearGradient></defs><title>Weather icons</title><path class="cls-1" d="M127.5,64A62.81,62.81,0,0,1,124,84.73c-0.29.83-.59,1.64-0.91,2.44a63.13,63.13,0,0,1-40.15,37.08,62.2,62.2,0,0,1-14.47,2.62q-2,.12-4,0.13A63,63,0,1,1,127.5,64Z"/><path class="cls-2" d="M123.09,87.17a63.13,63.13,0,0,1-40.15,37.08,62.2,62.2,0,0,1-14.47,2.62L23.68,79.75l84.23-11.5Z"/><path class="cls-3" d="M108.74,72.75a12.71,12.71,0,0,0-9.95-12.4,8.6,8.6,0,0,0-12.25-10,24,24,0,0,0-46,.11,17.77,17.77,0,1,0-4,35.14L36.68,86H96.16l-0.1-.41A12.82,12.82,0,0,0,108.74,72.75Z"/><path class="cls-4" d="M108.74,72.75a12.71,12.71,0,0,0-9.95-12.4,8.6,8.6,0,0,0-12.25-10A24,24,0,0,0,57.81,33.91,24,24,0,0,1,75,50.34a8.6,8.6,0,0,1,12.25,10,12.78,12.78,0,0,1-2.73,25.23L84.65,86H96.16l-0.1-.41A12.82,12.82,0,0,0,108.74,72.75Z"/><circle class="cls-5" cx="38.33" cy="93.26" r="2.61"/><circle class="cls-5" cx="51.12" cy="93.26" r="2.61"/><circle class="cls-5" cx="63.91" cy="93.26" r="2.61"/><circle class="cls-5" cx="76.71" cy="93.26" r="2.61"/><circle class="cls-5" cx="89.5" cy="93.26" r="2.61"/><circle class="cls-5" cx="83.1" cy="99.66" r="2.61"/><circle class="cls-5" cx="70.31" cy="99.66" r="2.61"/><circle class="cls-5" cx="57.52" cy="99.66" r="2.61"/><circle class="cls-5" cx="44.73" cy="99.66" r="2.61"/><circle class="cls-5" cx="51.12" cy="106.05" r="2.61"/><circle class="cls-5" cx="63.91" cy="106.05" r="2.61"/><circle class="cls-5" cx="76.71" cy="106.05" r="2.61"/></svg>