<svg id="основа" xmlns="http://www.w3.org/2000/svg" xmlns:xlink="http://www.w3.org/1999/xlink" viewBox="0 0 128 128"><defs><style>.cls-1{fill:none;}.cls-2{fill:#31db92;}.cls-3{clip-path:url(#clip-path);}.cls-4{fill:#128e59;}.cls-5{fill:#138f5a;}.cls-6{fill:#13905a;}.cls-7{fill:#14915b;}.cls-8{fill:#14925c;}.cls-9{fill:#15935d;}.cls-10{fill:#15945d;}.cls-11{fill:#16955e;}.cls-12{fill:#16965f;}.cls-13{fill:#17975f;}.cls-14{fill:#189860;}.cls-15{fill:#189961;}.cls-16{fill:#199a62;}.cls-17{fill:#199b62;}.cls-18{fill:#1a9c63;}.cls-19{fill:#1a9d64;}.cls-20{fill:#1b9e65;}.cls-21{fill:#1b9f65;}.cls-22{fill:#1ca066;}.cls-23{fill:#1ca167;}.cls-24{fill:#1da267;}.cls-25{fill:#1ea368;}.cls-26{fill:#1ea469;}.cls-27{fill:#1fa56a;}.cls-28{fill:#1fa66a;}.cls-29{fill:#20a76b;}.cls-30{fill:#20a86c;}.cls-31{fill:#21a96c;}.cls-32{fill:#21aa6d;}.cls-33{fill:#22ab6e;}.cls-34{fill:#23ac6f;}.cls-35{fill:#23ad6f;}.cls-36{fill:#24ae70;}.cls-37{fill:#24af71;}.cls-38{fill:#25b071;}.cls-39{fill:#25b172;}.cls-40{fill:#26b273;}.cls-41{fill:#26b374;}.cls-42{fill:#27b474;}.cls-43{fill:#27b575;}.cls-44{fill:#28b676;}.cls-45{fill:#29b776;}.cls-46{fill:#29b877;}.cls-47{fill:#2ab978;}.cls-48{fill:#2aba79;}.cls-49{fill:#2bbc79;}.cls-50{fill:#2bbd7a;}.cls-51{fill:#2cbe7b;}.cls-52{fill:#2cbf7c;}.cls-53{fill:#2dc07c;}.cls-54{fill:#2ec17d;}.cls-55{fill:#2ec27e;}.cls-56{fill:#2fc37e;}.cls-57{fill:#2fc47f;}.cls-58{fill:#30c580;}.cls-59{fill:#30c681;}.cls-60{fill:#31c781;}.cls-61{fill:#31c882;}.cls-62{fill:#32c983;}.cls-63{fill:#32ca83;}.cls-64{fill:#33cb84;}.cls-65{fill:#34cc85;}.cls-66{fill:#34cd86;}.cls-67{fill:#35ce86;}.cls-68{fill:#35cf87;}.cls-69{fill:#36d088;}.cls-70{fill:#36d188;}.cls-71{fill:#37d289;}.cls-72{fill:#37d38a;}.cls-73{fill:#38d48b;}.cls-74{fill:#39d58b;}.cls-75{fill:#39d68c;}.cls-76{fill:#3ad78d;}.cls-77{fill:#3ad88d;}.cls-78{fill:#3bd98e;}.cls-79{fill:#3bda8f;}.cls-80{fill:#3cdb90;}.cls-81{fill:#3cdc90;}.cls-82{fill:#3ddd91;}.cls-83{fill:#3dde92;}.cls-84{fill:#3edf93;}.cls-85{fill:#3fe093;}.cls-86{fill:#3fe194;}.cls-87{fill:#40e295;}.cls-88{fill:#40e395;}.cls-89{fill:#41e496;}.cls-90{fill:#41e597;}.cls-91{fill:#42e698;}.cls-92{fill:#42e798;}.cls-93{fill:#43e899;}.cls-94{fill:#fffffa;}.cls-95{fill:#f4f4ea;}.cls-96{fill:#ffb92c;}.cls-97{fill:#fce354;}</style><clipPath id="clip-path"><path class="cls-1" d="M123.09,87.17a63.13,63.13,0,0,1-40.15,37.08,62.2,62.2,0,0,1-14.47,2.62L23.68,79.75l84.23-11.5Z"/></clipPath></defs><title>Weather icons</title><path class="cls-2" d="M127.5,64A62.81,62.81,0,0,1,124,84.73c-0.29.83-.59,1.64-0.91,2.44a63.13,63.13,0,0,1-40.15,37.08,62.2,62.2,0,0,1-14.47,2.62q-2,.12-4,0.13A63,63,0,1,1,127.5,64Z"/><g class="cls-3"><polygon class="cls-4" points="52.14 68 24 79.75 24 68 52.14 68"/><polygon class="cls-4" points="54.03 68 24 80.52 24 79.75 52.14 68 54.03 68"/><polygon class="cls-5" points="55.92 68 24 81.28 24 80.52 54.03 68 55.92 68"/><polygon class="cls-6" points="57.81 68 24 82.04 24 81.28 55.92 68 57.81 68"/><polygon class="cls-7" points="59.7 68 24 82.81 24 82.04 57.81 68 59.7 68"/><polygon class="cls-8" points="61.59 68 23.98 83.39 24 83.17 24 82.81 59.7 68 61.59 68"/><polygon class="cls-9" points="63.48 68 24.09 84.04 23.82 83.32 61.59 68 63.48 68"/><polygon class="cls-10" points="65.37 68 24.35 84.7 24.09 83.98 63.48 68 65.37 68"/><polygon class="cls-11" points="67.26 68 24.62 85.36 24.35 84.64 65.37 68 67.26 68"/><polygon class="cls-12" points="69.15 68 24.88 86.01 24.62 85.29 67.26 68 69.15 68"/><polygon class="cls-13" points="71.04 68 25.15 86.67 24.88 85.95 69.15 68 71.04 68"/><polygon class="cls-14" points="72.93 68 25.41 87.32 25.15 86.6 71.04 68 72.93 68"/><polygon class="cls-15" points="74.82 68 25.68 87.98 25.41 87.26 72.93 68 74.82 68"/><polygon class="cls-16" points="76.7 68 25.94 88.64 25.68 87.92 74.82 68 76.7 68"/><polygon class="cls-17" points="78.59 68 26.21 89.29 25.94 88.57 76.7 68 78.59 68"/><polygon class="cls-18" points="80.48 68 26.47 89.95 26.21 89.23 78.59 68 80.48 68"/><polygon class="cls-19" points="82.37 68 26.74 90.61 26.47 89.89 80.48 68 82.37 68"/><polygon class="cls-20" points="84.26 68 27 91.26 26.74 90.54 82.37 68 84.26 68"/><polygon class="cls-21" points="86.15 68 27.27 91.92 27 91.2 84.26 68 86.15 68"/><polygon class="cls-22" points="88.04 68 27.53 92.57 27.27 91.85 86.15 68 88.04 68"/><polygon class="cls-23" points="89.93 68 27.8 93.23 27.53 92.51 88.04 68 89.93 68"/><polygon class="cls-24" points="91.82 68 28.06 93.89 27.8 93.17 89.93 68 91.82 68"/><polygon class="cls-25" points="93.71 68 28.33 94.54 28.06 93.82 91.82 68 93.71 68"/><polygon class="cls-26" points="95.6 68 28.59 95.2 28.33 94.48 93.71 68 95.6 68"/><polygon class="cls-27" points="97.49 68 28.86 95.86 28.59 95.14 95.6 68 97.49 68"/><polygon class="cls-28" points="99.38 68 29.12 96.51 28.86 95.79 97.49 68 99.38 68"/><polygon class="cls-29" points="101.27 68 29.39 97.17 29.12 96.45 99.38 68 101.27 68"/><polygon class="cls-30" points="103.16 68 29.65 97.82 29.39 97.1 101.27 68 103.16 68"/><polygon class="cls-31" points="105.04 68 29.92 98.48 29.65 97.76 103.16 68 105.04 68"/><polygon class="cls-32" points="106.93 68 30.18 99.14 29.92 98.42 105.04 68 106.93 68"/><polygon class="cls-33" points="108.82 68 30.45 99.79 30.18 99.07 106.93 68 108.82 68"/><polygon class="cls-34" points="110.71 68 30.71 100.45 30.45 99.73 108.82 68 110.71 68"/><polygon class="cls-35" points="112.6 68 30.98 101.1 30.71 100.39 110.71 68 112.6 68"/><polygon class="cls-36" points="114.49 68 31.24 101.76 30.98 101.04 112.6 68 114.49 68"/><polygon class="cls-37" points="116.38 68 31.51 102.42 31.24 101.7 114.49 68 116.38 68"/><polygon class="cls-38" points="116.83 68 117.03 68.63 31.77 103.14 31.51 102.39 116.38 68 116.83 68"/><rect class="cls-39" x="28.56" y="85.95" width="91.95" height="0.71" transform="translate(-26.9 34.21) rotate(-22)"/><rect class="cls-40" x="28.82" y="86.61" width="91.95" height="0.71" transform="translate(-27.13 34.35) rotate(-22)"/><rect class="cls-41" x="29.09" y="87.26" width="91.95" height="0.71" transform="translate(-27.36 34.5) rotate(-22)"/><rect class="cls-42" x="29.35" y="87.92" width="91.95" height="0.71" transform="translate(-27.58 34.65) rotate(-22)"/><rect class="cls-43" x="29.62" y="88.58" width="91.95" height="0.71" transform="translate(-27.81 34.79) rotate(-22)"/><rect class="cls-44" x="29.88" y="89.23" width="91.95" height="0.71" transform="translate(-28.04 34.94) rotate(-22)"/><rect class="cls-45" x="30.15" y="89.89" width="91.95" height="0.71" transform="translate(-28.26 35.09) rotate(-22)"/><rect class="cls-46" x="30.41" y="90.54" width="91.95" height="0.71" transform="translate(-28.49 35.24) rotate(-22)"/><rect class="cls-47" x="30.68" y="91.2" width="91.95" height="0.71" transform="translate(-28.71 35.38) rotate(-22)"/><rect class="cls-48" x="30.95" y="91.86" width="91.95" height="0.71" transform="translate(-28.94 35.53) rotate(-22)"/><rect class="cls-49" x="31.21" y="92.51" width="91.95" height="0.71" transform="translate(-29.17 35.68) rotate(-22)"/><rect class="cls-50" x="31.48" y="93.17" width="91.95" height="0.71" transform="translate(-29.39 35.82) rotate(-22)"/><rect class="cls-51" x="31.74" y="93.83" width="91.95" height="0.71" transform="translate(-29.62 35.97) rotate(-22)"/><rect class="cls-52" x="32.01" y="94.48" width="91.95" height="0.71" transform="translate(-29.85 36.12) rotate(-22)"/><rect class="cls-53" x="32.27" y="95.14" width="91.95" height="0.71" transform="translate(-30.07 36.27) rotate(-22)"/><rect class="cls-54" x="32.54" y="95.79" width="91.95" height="0.71" transform="translate(-30.3 36.41) rotate(-22)"/><rect class="cls-55" x="32.8" y="96.45" width="91.95" height="0.71" transform="translate(-30.53 36.56) rotate(-22)"/><rect class="cls-56" x="33.07" y="97.11" width="91.95" height="0.71" transform="translate(-30.75 36.71) rotate(-22)"/><rect class="cls-57" x="33.33" y="97.76" width="91.95" height="0.71" transform="translate(-30.98 36.85) rotate(-22)"/><rect class="cls-58" x="33.6" y="98.42" width="91.95" height="0.71" transform="translate(-31.21 37) rotate(-22)"/><rect class="cls-59" x="33.86" y="99.07" width="91.95" height="0.71" transform="translate(-31.43 37.15) rotate(-22)"/><rect class="cls-60" x="34.13" y="99.73" width="91.95" height="0.71" transform="translate(-31.66 37.29) rotate(-22)"/><polygon class="cls-61" points="122.82 83.19 123 83.76 123 83.86 37.83 118.29 37.56 117.64 122.82 83.19"/><polygon class="cls-62" points="123 84.62 38.09 118.95 37.8 118.29 123 83.86 123 84.62"/><polygon class="cls-63" points="123 85.39 38.36 119.6 38.07 118.95 123 84.62 123 85.39"/><polygon class="cls-64" points="123 86.15 38.62 120.26 38.33 119.6 123 85.39 123 86.15"/><polygon class="cls-65" points="123 86.91 38.89 120.92 38.6 120.26 123 86.15 123 86.91"/><polygon class="cls-66" points="123 87.68 39.15 121.57 38.86 120.92 123 86.91 123 87.68"/><polygon class="cls-67" points="123 88.44 39.42 122.23 39.13 121.57 123 87.68 123 88.44"/><polygon class="cls-68" points="123 89.2 39.68 122.89 39.39 122.23 123 88.44 123 89.2"/><polygon class="cls-69" points="123 89.97 39.95 123.54 39.66 122.89 123 89.2 123 89.97"/><polygon class="cls-70" points="123 90.73 40.21 124.2 39.92 123.54 123 89.97 123 90.73"/><polygon class="cls-71" points="123 91.49 40.48 124.85 40.19 124.2 123 90.73 123 91.49"/><polygon class="cls-72" points="123 92.26 40.74 125.51 40.45 124.85 123 91.49 123 92.26"/><polygon class="cls-73" points="123 93.02 41.01 126.17 40.72 125.51 123 92.26 123 93.02"/><polygon class="cls-74" points="123 93.78 41.27 126.82 40.98 126.17 123 93.02 123 93.78"/><polygon class="cls-75" points="123 94.55 43.09 127 41.34 127 41.27 126.89 123 93.78 123 94.55"/><polygon class="cls-76" points="123 95.31 44.98 127 43.09 127 123 94.55 123 95.31"/><polygon class="cls-77" points="123 96.07 46.86 127 44.98 127 123 95.31 123 96.07"/><polygon class="cls-78" points="123 96.84 48.75 127 46.86 127 123 96.07 123 96.84"/><polygon class="cls-79" points="123 97.6 50.64 127 48.75 127 123 96.84 123 97.6"/><polygon class="cls-80" points="123 98.36 52.53 127 50.64 127 123 97.6 123 98.36"/><polygon class="cls-81" points="123 99.13 54.42 127 52.53 127 123 98.36 123 99.13"/><polygon class="cls-82" points="123 99.89 56.31 127 54.42 127 123 99.13 123 99.89"/><polygon class="cls-83" points="123 100.65 58.2 127 56.31 127 123 99.89 123 100.65"/><polygon class="cls-84" points="123 101.42 60.09 127 58.2 127 123 100.65 123 101.42"/><polygon class="cls-85" points="123 102.18 61.98 127 60.09 127 123 101.42 123 102.18"/><polygon class="cls-86" points="123 102.94 63.87 127 61.98 127 123 102.18 123 102.94"/><polygon class="cls-87" points="123 103.71 65.76 127 63.87 127 123 102.94 123 103.71"/><polygon class="cls-88" points="123 104.47 67.65 127 65.76 127 123 103.71 123 104.47"/><polygon class="cls-89" points="123 105.23 69.53 127 67.65 127 123 104.47 123 105.23"/><polygon class="cls-90" points="123 106 71.42 127 69.53 127 123 105.23 123 106"/><polygon class="cls-91" points="123 106.76 73.31 127 71.42 127 123 106 123 106.76"/><polygon class="cls-92" points="123 107.52 75.2 127 73.31 127 123 106.76 123 107.52"/><polygon class="cls-93" points="123 108.29 77.09 127 75.2 127 123 107.52 123 108.29"/><polygon class="cls-93" points="77.09 127 123 108.29 123 127 77.09 127"/></g><path class="cls-94" d="M108.74,72.75a12.71,12.71,0,0,0-9.95-12.4,8.6,8.6,0,0,0-12.25-10,24,24,0,0,0-46,.11,17.77,17.77,0,1,0-4,35.14L36.68,86H96.16l-0.1-.41A12.82,12.82,0,0,0,108.74,72.75Z"/><path class="cls-95" d="M108.74,72.75a12.71,12.71,0,0,0-9.95-12.4,8.6,8.6,0,0,0-12.25-10A24,24,0,0,0,57.81,33.91,24,24,0,0,1,75,50.34a8.6,8.6,0,0,1,12.25,10,12.78,12.78,0,0,1-2.73,25.23L84.65,86H96.16l-0.1-.41A12.82,12.82,0,0,0,108.74,72.75Z"/><polygon class="cls-96" points="65.86 70.61 54.99 90 65.86 90 52.6 113.43 76.08 86 63.25 86 65.86 70.61"/><polygon class="cls-97" points="89.56 79.08 83.04 91 89.56 91 81.61 104.74 95.68 88 87.99 88 89.56 79.08"/><polygon class="cls-97" points="40.95 79.08 34.43 91 40.95 91 33 104.74 47.07 88 39.38 88 40.95 79.08"/></svg>