<svg id="основа" xmlns="http://www.w3.org/2000/svg" xmlns:xlink="http://www.w3.org/1999/xlink" viewBox="0 0 128 128"><defs><style>.cls-1{fill:none;}.cls-2{fill:#31db92;}.cls-3{clip-path:url(#clip-path);}.cls-4{fill:#128e59;}.cls-5{fill:#138f5a;}.cls-6{fill:#13905a;}.cls-7{fill:#14915b;}.cls-8{fill:#14925c;}.cls-9{fill:#15935d;}.cls-10{fill:#15945d;}.cls-11{fill:#16955e;}.cls-12{fill:#16965f;}.cls-13{fill:#17975f;}.cls-14{fill:#189860;}.cls-15{fill:#189961;}.cls-16{fill:#199a62;}.cls-17{fill:#199b62;}.cls-18{fill:#1a9c63;}.cls-19{fill:#1a9d64;}.cls-20{fill:#1b9e65;}.cls-21{fill:#1b9f65;}.cls-22{fill:#1ca066;}.cls-23{fill:#1ca167;}.cls-24{fill:#1da267;}.cls-25{fill:#1ea368;}.cls-26{fill:#1ea469;}.cls-27{fill:#1fa56a;}.cls-28{fill:#1fa66a;}.cls-29{fill:#20a76b;}.cls-30{fill:#20a86c;}.cls-31{fill:#21a96c;}.cls-32{fill:#21aa6d;}.cls-33{fill:#22ab6e;}.cls-34{fill:#23ac6f;}.cls-35{fill:#23ad6f;}.cls-36{fill:#24ae70;}.cls-37{fill:#24af71;}.cls-38{fill:#25b071;}.cls-39{fill:#25b172;}.cls-40{fill:#26b273;}.cls-41{fill:#26b374;}.cls-42{fill:#27b474;}.cls-43{fill:#27b575;}.cls-44{fill:#28b676;}.cls-45{fill:#29b776;}.cls-46{fill:#29b877;}.cls-47{fill:#2ab978;}.cls-48{fill:#2aba79;}.cls-49{fill:#2bbc79;}.cls-50{fill:#2bbd7a;}.cls-51{fill:#2cbe7b;}.cls-52{fill:#2cbf7c;}.cls-53{fill:#2dc07c;}.cls-54{fill:#2ec17d;}.cls-55{fill:#2ec27e;}.cls-56{fill:#2fc37e;}.cls-57{fill:#2fc47f;}.cls-58{fill:#30c580;}.cls-59{fill:#30c681;}.cls-60{fill:#31c781;}.cls-61{fill:#31c882;}.cls-62{fill:#32c983;}.cls-63{fill:#32ca83;}.cls-64{fill:#33cb84;}.cls-65{fill:#34cc85;}.cls-66{fill:#34cd86;}.cls-67{fill:#35ce86;}.cls-68{fill:#35cf87;}.cls-69{fill:#36d088;}.cls-70{fill:#36d188;}.cls-71{fill:#37d289;}.cls-72{fill:#37d38a;}.cls-73{fill:#38d48b;}.cls-74{fill:#39d58b;}.cls-75{fill:#39d68c;}.cls-76{fill:#3ad78d;}.cls-77{fill:#3ad88d;}.cls-78{fill:#3bd98e;}.cls-79{fill:#3bda8f;}.cls-80{fill:#3cdb90;}.cls-81{fill:#3cdc90;}.cls-82{fill:#3ddd91;}.cls-83{fill:#3dde92;}.cls-84{fill:#3edf93;}.cls-85{fill:#3fe093;}.cls-86{fill:#3fe194;}.cls-87{fill:#40e295;}.cls-88{fill:#40e395;}.cls-89{fill:#41e496;}.cls-90{fill:#41e597;}.cls-91{fill:#42e698;}.cls-92{fill:#42e798;}.cls-93{fill:#43e899;}.cls-94{fill:#fffffa;}.cls-95{fill:#f4f4ea;}</style><clipPath id="clip-path"><path class="cls-1" d="M126,77.89a62.65,62.65,0,0,1-2,6.84c-0.29.83-.59,1.64-0.91,2.44a63.13,63.13,0,0,1-40.15,37.08,62.2,62.2,0,0,1-14.47,2.62l-0.45,0L26.24,83l91.84-14.7Z"/></clipPath></defs><title>Weather icons</title><path class="cls-2" d="M127.5,64A62.69,62.69,0,0,1,124,84.73c-0.29.83-.59,1.64-0.91,2.44a63.13,63.13,0,0,1-40.15,37.08,62.2,62.2,0,0,1-14.47,2.62l-0.45,0c-1.16.07-2.33,0.1-3.52,0.1A63,63,0,1,1,127.5,64Z"/><g class="cls-3"><polygon class="cls-4" points="62.62 68 26 82.95 26 68 62.62 68"/><polygon class="cls-4" points="64.39 68 26 83.67 26 82.95 62.62 68 64.39 68"/><polygon class="cls-5" points="66.16 68 26 84.38 26 83.67 64.39 68 66.16 68"/><polygon class="cls-6" points="67.94 68 26 85.1 26 84.38 66.16 68 67.94 68"/><polygon class="cls-7" points="69.71 68 26 85.82 26 85.1 67.94 68 69.71 68"/><polygon class="cls-8" points="71.48 68 26.18 86.38 26 86.37 26 85.82 69.71 68 71.48 68"/><polygon class="cls-9" points="73.25 68 26.55 87 26.3 86.32 71.48 68 73.25 68"/><polygon class="cls-10" points="75.03 68 26.8 87.61 26.55 86.94 73.25 68 75.03 68"/><polygon class="cls-11" points="76.8 68 27.04 88.23 26.8 87.55 75.03 68 76.8 68"/><polygon class="cls-12" points="78.57 68 27.29 88.85 27.04 88.17 76.8 68 78.57 68"/><polygon class="cls-13" points="80.35 68 27.54 89.46 27.29 88.78 78.57 68 80.35 68"/><polygon class="cls-14" points="82.12 68 27.79 90.08 27.54 89.4 80.35 68 82.12 68"/><polygon class="cls-15" points="83.89 68 28.04 90.69 27.79 90.01 82.12 68 83.89 68"/><polygon class="cls-16" points="85.67 68 28.29 91.31 28.04 90.63 83.89 68 85.67 68"/><polygon class="cls-17" points="87.44 68 28.54 91.92 28.29 91.25 85.67 68 87.44 68"/><polygon class="cls-18" points="89.21 68 28.79 92.54 28.54 91.86 87.44 68 89.21 68"/><polygon class="cls-19" points="90.98 68 29.03 93.16 28.79 92.48 89.21 68 90.98 68"/><polygon class="cls-20" points="92.76 68 29.28 93.77 29.03 93.09 90.98 68 92.76 68"/><polygon class="cls-21" points="94.53 68 29.53 94.39 29.28 93.71 92.76 68 94.53 68"/><polygon class="cls-22" points="96.3 68 29.78 95 29.53 94.32 94.53 68 96.3 68"/><polygon class="cls-23" points="98.08 68 30.03 95.62 29.78 94.94 96.3 68 98.08 68"/><polygon class="cls-24" points="99.85 68 30.28 96.23 30.03 95.56 98.08 68 99.85 68"/><polygon class="cls-25" points="101.62 68 30.53 96.85 30.28 96.17 99.85 68 101.62 68"/><polygon class="cls-26" points="103.39 68 30.78 97.47 30.53 96.79 101.62 68 103.39 68"/><polygon class="cls-27" points="105.17 68 31.02 98.08 30.78 97.4 103.39 68 105.17 68"/><polygon class="cls-28" points="106.94 68 31.27 98.7 31.02 98.02 105.17 68 106.94 68"/><polygon class="cls-29" points="108.71 68 31.52 99.31 31.27 98.64 106.94 68 108.71 68"/><polygon class="cls-30" points="110.49 68 31.77 99.93 31.52 99.25 108.71 68 110.49 68"/><polygon class="cls-31" points="112.26 68 32.02 100.55 31.77 99.87 110.49 68 112.26 68"/><polygon class="cls-32" points="114.03 68 32.27 101.16 32.02 100.48 112.26 68 114.03 68"/><polygon class="cls-33" points="115.81 68 32.52 101.78 32.27 101.1 114.03 68 115.81 68"/><polygon class="cls-34" points="117.58 68 32.77 102.39 32.52 101.71 115.81 68 117.58 68"/><polygon class="cls-35" points="119.35 68 33.02 103.01 32.77 102.33 117.58 68 119.35 68"/><polygon class="cls-36" points="121.12 68 33.26 103.62 33.02 102.94 119.35 68 121.12 68"/><polygon class="cls-37" points="122.9 68 33.51 104.24 33.26 103.56 121.12 68 122.9 68"/><polygon class="cls-38" points="123.45 68 123.62 68.55 33.76 104.92 33.51 104.21 122.9 68 123.45 68"/><rect class="cls-39" x="30.36" y="86.81" width="96.92" height="0.66" transform="translate(-26.9 35.87) rotate(-22)"/><rect class="cls-40" x="30.61" y="87.42" width="96.92" height="0.66" transform="translate(-27.12 36.01) rotate(-22)"/><rect class="cls-41" x="30.85" y="88.04" width="96.92" height="0.66" transform="translate(-27.33 36.15) rotate(-22)"/><rect class="cls-42" x="31.1" y="88.65" width="96.92" height="0.66" transform="translate(-27.54 36.28) rotate(-22)"/><rect class="cls-43" x="31.35" y="89.27" width="96.92" height="0.66" transform="translate(-27.75 36.42) rotate(-22)"/><rect class="cls-44" x="31.6" y="89.88" width="96.92" height="0.66" transform="translate(-27.97 36.56) rotate(-22)"/><rect class="cls-45" x="31.85" y="90.5" width="96.92" height="0.66" transform="translate(-28.18 36.7) rotate(-22)"/><rect class="cls-46" x="32.1" y="91.12" width="96.92" height="0.66" transform="translate(-28.39 36.84) rotate(-22)"/><rect class="cls-47" x="32.35" y="91.73" width="96.92" height="0.66" transform="translate(-28.6 36.97) rotate(-22)"/><polygon class="cls-48" points="125.88 74.22 126 74.47 126 74.89 36.27 111.14 36.02 110.53 125.88 74.22"/><polygon class="cls-49" points="126 75.61 36.52 111.76 36.27 111.14 126 74.89 126 75.61"/><polygon class="cls-50" points="126 76.33 36.76 112.37 36.52 111.76 126 75.61 126 76.33"/><polygon class="cls-51" points="126 77.04 37.01 112.99 36.77 112.37 126 76.33 126 77.04"/><polygon class="cls-52" points="126 77.76 37.26 113.6 37.02 112.99 126 77.04 126 77.76"/><polygon class="cls-53" points="126 78.47 37.51 114.22 37.27 113.6 126 77.76 126 78.47"/><polygon class="cls-54" points="126 79.19 37.76 114.83 37.52 114.22 126 78.47 126 79.19"/><polygon class="cls-55" points="126 79.91 38.01 115.45 37.77 114.83 126 79.19 126 79.91"/><polygon class="cls-56" points="126 80.62 38.26 116.07 38.02 115.45 126 79.91 126 80.62"/><polygon class="cls-57" points="126 81.34 38.51 116.68 38.27 116.07 126 80.62 126 81.34"/><polygon class="cls-58" points="126 82.06 38.75 117.3 38.51 116.68 126 81.34 126 82.06"/><polygon class="cls-59" points="126 82.77 39 117.91 38.76 117.3 126 82.06 126 82.77"/><polygon class="cls-60" points="126 83.49 39.25 118.53 39.01 117.91 126 82.77 126 83.49"/><polygon class="cls-61" points="126 84.2 39.5 119.15 39.26 118.53 126 83.49 126 84.2"/><polygon class="cls-62" points="126 84.92 39.75 119.76 39.51 119.15 126 84.2 126 84.92"/><polygon class="cls-63" points="126 85.64 40 120.38 39.76 119.76 126 84.92 126 85.64"/><polygon class="cls-64" points="126 86.35 40.25 120.99 40.01 120.38 126 85.64 126 86.35"/><polygon class="cls-65" points="126 87.07 40.5 121.61 40.26 120.99 126 86.35 126 87.07"/><polygon class="cls-66" points="126 87.79 40.74 122.22 40.51 121.61 126 87.07 126 87.79"/><polygon class="cls-67" points="126 88.5 40.99 122.84 40.75 122.22 126 87.79 126 88.5"/><polygon class="cls-68" points="126 89.22 41.24 123.46 41 122.84 126 88.5 126 89.22"/><polygon class="cls-69" points="126 89.94 41.49 124.07 41.25 123.46 126 89.22 126 89.94"/><polygon class="cls-70" points="126 90.65 41.74 124.69 41.5 124.07 126 89.94 126 90.65"/><polygon class="cls-71" points="126 91.37 41.99 125.3 41.75 124.69 126 90.65 126 91.37"/><polygon class="cls-72" points="126 92.08 42.24 125.92 42 125.3 126 91.37 126 92.08"/><polygon class="cls-73" points="126 92.8 42.49 126.53 42.25 125.92 126 92.08 126 92.8"/><polygon class="cls-74" points="126 93.52 43.34 127 42.62 127 42.49 126.59 126 92.8 126 93.52"/><polygon class="cls-75" points="126 94.23 45.12 127 43.34 127 126 93.52 126 94.23"/><polygon class="cls-76" points="126 94.95 46.89 127 45.12 127 126 94.23 126 94.95"/><polygon class="cls-77" points="126 95.67 48.66 127 46.89 127 126 94.95 126 95.67"/><polygon class="cls-78" points="126 96.38 50.44 127 48.66 127 126 95.67 126 96.38"/><polygon class="cls-79" points="126 97.1 52.21 127 50.44 127 126 96.38 126 97.1"/><polygon class="cls-80" points="126 97.81 53.98 127 52.21 127 126 97.1 126 97.81"/><polygon class="cls-81" points="126 98.53 55.75 127 53.98 127 126 97.81 126 98.53"/><polygon class="cls-82" points="126 99.25 57.53 127 55.75 127 126 98.53 126 99.25"/><polygon class="cls-83" points="126 99.96 59.3 127 57.53 127 126 99.25 126 99.96"/><polygon class="cls-84" points="126 100.68 61.07 127 59.3 127 126 99.96 126 100.68"/><polygon class="cls-85" points="126 101.4 62.85 127 61.07 127 126 100.68 126 101.4"/><polygon class="cls-86" points="126 102.11 64.62 127 62.85 127 126 101.4 126 102.11"/><polygon class="cls-87" points="126 102.83 66.39 127 64.62 127 126 102.11 126 102.83"/><polygon class="cls-88" points="126 103.55 68.17 127 66.39 127 126 102.83 126 103.55"/><polygon class="cls-89" points="126 104.26 69.94 127 68.17 127 126 103.55 126 104.26"/><polygon class="cls-90" points="126 104.98 71.71 127 69.94 127 126 104.26 126 104.98"/><polygon class="cls-91" points="126 105.69 73.48 127 71.71 127 126 104.98 126 105.69"/><polygon class="cls-92" points="126 106.41 75.26 127 73.48 127 126 105.69 126 106.41"/><polygon class="cls-93" points="126 107.13 77.03 127 75.26 127 126 106.41 126 107.13"/><polygon class="cls-93" points="77.03 127 126 107.13 126 127 77.03 127"/></g><path class="cls-94" d="M118.94,72.27a9.8,9.8,0,0,0-7.67-9.56A6.63,6.63,0,0,0,101.82,55a18.49,18.49,0,0,0-35.47.08A13.66,13.66,0,0,0,49.71,68.41a14,14,0,0,0,13.56,14L63.36,83h45.88l-0.08-.57A10.11,10.11,0,0,0,118.94,72.27Z"/><path class="cls-95" d="M118.94,72.27a9.8,9.8,0,0,0-7.67-9.56A6.63,6.63,0,0,0,101.82,55,18.5,18.5,0,0,0,79.66,42.31,18.52,18.52,0,0,1,92.94,55a6.63,6.63,0,0,1,9.45,7.72,9.8,9.8,0,0,1,7.67,9.56,10.11,10.11,0,0,1-9.78,10.15L100.36,83h8.88l-0.08-.57A10.11,10.11,0,0,0,118.94,72.27Z"/><rect class="cls-94" x="24" y="77" width="58" height="6"/><circle class="cls-94" cx="23.07" cy="83.41" r="6.1" transform="translate(-45.58 30.72) rotate(-37.03)"/><rect class="cls-94" x="15" y="69" width="59" height="5"/><path class="cls-94" d="M19.55,71.6a5.81,5.81,0,0,0-1.2-8.29,6.22,6.22,0,0,0-8.54,1.16A5.81,5.81,0,0,0,11,72.77,6.22,6.22,0,0,0,19.55,71.6Z"/><rect class="cls-94" x="36" y="61" width="59" height="5"/><path class="cls-94" d="M40.51,63.22a5.81,5.81,0,0,0-1.2-8.29,6.22,6.22,0,0,0-8.54,1.16A5.81,5.81,0,0,0,32,64.38,6.22,6.22,0,0,0,40.51,63.22Z"/></svg>